<svg width="23" height="23" viewBox="0 0 23 23" fill="none" xmlns="http://www.w3.org/2000/svg">
<path d="M20.1379 8.41915C20.0802 8.24934 19.9741 8.10013 19.8326 7.98994C19.6911 7.87975 19.5205 7.81341 19.3417 7.7991L14.1126 7.38359L11.8498 2.37458C11.7777 2.21324 11.6605 2.07622 11.5123 1.98003C11.364 1.88385 11.1912 1.83262 11.0145 1.83252C10.8378 1.83242 10.6648 1.88347 10.5165 1.97949C10.3682 2.07551 10.2508 2.21241 10.1786 2.37366L7.91575 7.38359L2.68659 7.7991C2.5109 7.81302 2.34294 7.87726 2.2028 7.98413C2.06267 8.09101 1.95629 8.236 1.89639 8.40175C1.83649 8.5675 1.82562 8.747 1.86507 8.91877C1.90452 9.09054 1.99261 9.24731 2.11883 9.37032L5.98313 13.1374L4.61645 19.0554C4.57496 19.2345 4.58826 19.422 4.65463 19.5935C4.721 19.765 4.83738 19.9125 4.98867 20.0171C5.13996 20.1216 5.31916 20.1782 5.50304 20.1796C5.68691 20.181 5.86696 20.1271 6.01982 20.0249L11.0142 16.6954L16.0085 20.0249C16.1647 20.1286 16.349 20.182 16.5365 20.1779C16.724 20.1738 16.9057 20.1124 17.0573 20.0019C17.2088 19.8914 17.3229 19.7372 17.3841 19.5599C17.4454 19.3827 17.4509 19.1909 17.3999 19.0105L15.7223 13.1402L19.8829 9.396C20.1553 9.15018 20.2553 8.76678 20.1379 8.41915V8.41915Z" fill="#F3CD03"/>
</svg>
